<svg width="191px" height="82px" viewBox="0 0 191 82" version="1.1" xmlns="http://www.w3.org/2000/svg" xmlns:xlink="http://www.w3.org/1999/xlink">
    <g id="Page-1" stroke="none" stroke-width="1" fill="none" fill-rule="evenodd">
        <g id="blue_square_1" fill="#FFFFFF" fill-rule="nonzero">
            <path d="M105.67,36.06 L172.57,36.06 C182.324968,36.0600016 190.234479,28.1549661 190.24,18.4 L190.24,18.4 C190.24,8.64112847 182.328872,0.73 172.57,0.73 L105.67,0.73 C95.9111285,0.73 88,8.64112847 88,18.4 L88,18.4 C88.0055206,28.1549661 95.9150324,36.0600016 105.67,36.06 Z M17.67,81.06 L94.57,81.06 C104.324968,81.0600016 112.234479,73.1549661 112.24,63.4 L112.24,63.4 C112.24,53.6411285 104.328872,45.73 94.57,45.73 L17.67,45.73 C7.91112847,45.73 1.19511708e-15,53.6411285 0,63.4 L0,63.4 C0.00552063816,73.1549661 7.91503238,81.0600016 17.67,81.06 L17.67,81.06 Z M10.41,35.42 L18.21,35.42 L18.21,6.92 L28.31,6.92 L28.31,0 L0.31,0 L0.31,6.9 L10.41,6.9 L10.41,35.42 Z M38.51,35.42 L46.31,35.42 L46.31,8.25 L46.41,8.25 L55.41,35.4 L61.41,35.4 L70.71,8.25 L70.81,8.25 L70.81,35.4 L78.61,35.4 L78.61,0 L66.76,0 L58.56,23.1 L58.46,23.1 L50.31,0 L38.51,0 L38.51,35.42 Z M152.43,55.67 C151.386879,53.4947372 149.836776,51.6016907 147.91,50.15 C145.910982,48.6881834 143.639765,47.6409754 141.23,47.07 C138.590514,46.4106003 135.880602,46.0747995 133.16,46.07 L121.46,46.07 L121.46,81.4702864 L134.21,81.47 C136.771211,81.4823637 139.318619,81.0943479 141.76,80.32 C144.06499,79.6185338 146.218613,78.4925447 148.11,77 C149.94979,75.5067566 151.441214,73.6296773 152.48,71.5 C153.603059,69.1336743 154.161058,66.5388075 154.11,63.92 C154.19152,61.0774292 153.616634,58.2543285 152.43,55.67 L152.43,55.67 Z M145,68.6 C144.415034,69.9344067 143.507895,71.102691 142.36,72 C141.166952,72.8768875 139.804896,73.4966229 138.36,73.82 C136.720487,74.1977057 135.042413,74.3822938 133.36,74.37 L129.31,74.37 L129.31,53.3697917 L133.91,53.37 C135.488365,53.362186 137.060128,53.5742226 138.58,54 C139.978238,54.376978 141.294015,55.0111284 142.46,55.87 C143.52905,56.7113063 144.396817,57.7806419 145,59 C145.68695,60.4060847 146.02971,61.9553621 146,63.52 C146.04387,65.2662314 145.702443,67.0006805 145,68.6 Z M189.63,68.47 C189.276793,67.5031517 188.740317,66.6135527 188.05,65.85 C187.363128,65.090669 186.542913,64.4636454 185.63,64 C184.634376,63.4974026 183.563799,63.1596811 182.46,63 L182.46,62.9 C184.175187,62.4075409 185.71061,61.4279274 186.88,60.08 C188.032662,58.6748918 188.630356,56.8960422 188.56,55.08 C188.634943,53.4513514 188.235441,51.8359731 187.41,50.43 C186.656758,49.2836696 185.624418,48.3476808 184.41,47.71 C183.103505,47.035329 181.688688,46.5953142 180.23,46.41 C178.699686,46.1914005 177.155847,46.0811263 175.61,46.08 L162.41,46.08 L162.41,81.4800035 L176.91,81.48 C178.496597,81.480888 180.078802,81.3132815 181.63,80.98 C183.14018,80.6776109 184.587644,80.1195932 185.91,79.33 C187.161482,78.5832582 188.222638,77.5563323 189.01,76.33 C189.853197,74.9184687 190.269956,73.2931092 190.21,71.65 C190.211559,70.5662025 190.025478,69.4903162 189.66,68.47 L189.63,68.47 Z M170.21,52.72 L175.51,52.72 C176.130918,52.7224346 176.750259,52.7826948 177.36,52.9 C177.951363,53.0063487 178.524055,53.1983692 179.06,53.47 C179.554177,53.7395355 179.973458,54.1278858 180.28,54.6 C180.617698,55.1453188 180.78484,55.7790667 180.76,56.42 C180.774589,57.0470737 180.626441,57.6672278 180.33,58.22 C180.060275,58.7054688 179.675736,59.1174752 179.21,59.42 C178.72527,59.7271514 178.190543,59.947134 177.63,60.07 C177.050023,60.2066481 176.455845,60.2737869 175.86,60.27 L170.21,60.27 L170.21,52.72 Z M181.93,72.72 C181.629161,73.2417175 181.211585,73.6866756 180.71,74.02 C180.201701,74.3619499 179.630719,74.5998591 179.03,74.72 C178.43273,74.8545666 177.82224,74.9216534 177.21,74.92 L170.21,74.9200298 L170.21,66.92 L176.11,66.92 C176.779224,66.9263469 177.447316,66.9764539 178.11,67.07 C178.813692,67.1666511 179.502431,67.3514349 180.16,67.62 C180.773265,67.8767462 181.312863,68.282304 181.73,68.8 C182.16519,69.3736362 182.387854,70.0805048 182.36,70.8 C182.392081,71.4670362 182.243523,72.1303647 181.93,72.72 L181.93,72.72 Z" id="Shape"></path>
        </g>
    </g>
</svg>